<svg xmlns="http://www.w3.org/2000/svg" width="96" height="54" fill="none"><path fill="#FF7E3E" d="m36.034 29.67-5.55-2.354-25.635 1.6c-1.746.108-3.364-1.02-3.657-2.744-.075-.441-.13-.864-.146-1.21C.98 23.532.322 16.464 0 13.108l.885-6.496.174-1.156a3.687 3.687 0 0 1 2.949-3.072c3.17-.61 7.062-1.356 7.655-1.455C13.412.634 23.368.286 28.899.112a3.675 3.675 0 0 1 3.789 3.594c.06 2.614.13 5.689.13 5.91 0 .39.16 8.12.24 11.936l1.69 4.14c.536.893 1.344 2.49 1.765 3.355.331.682-.157.786-.479.624Z"/><path fill="#211E1D" d="M10.064 8.851c.139.955.312 2.486 1.034 2.99a.917.917 0 0 0 .57.096c.075-.012.077-.04.055-.02h-.008l.008-.01.077-.114c.054-.072.1-.16.152-.239.635-1.096 1.118-2.313 1.714-3.453a.577.577 0 0 1 .612-.291.573.573 0 0 1 .463.499 7.405 7.405 0 0 1-1.022 4.32 7.65 7.65 0 0 1-.354.534l-.028.035-.058.07a1.26 1.26 0 0 1-.125.133c-1.19 1.09-3.133.56-3.87-.753-.555-.982-.617-2.096-.519-3.157.024-.253.063-.503.117-.75a.596.596 0 0 1 1.015-.29.608.608 0 0 1 .17.388l-.003.012ZM19.03 9.077c.166.953.396 2.06.81 2.902.058.14.149.264.264.36.215.162.463.292.668.197.401-.241.585-.82.761-1.282.089-.217.204-.433.294-.663a8.44 8.44 0 0 0 .14-.346c.381-1.059.706-2.221.785-3.344a.563.563 0 0 1 .183-.384.552.552 0 0 1 .396-.145c.648.047.569.898.632 1.342a13.021 13.021 0 0 1-.347 3.89 3.32 3.32 0 0 1-.139.434 4.882 4.882 0 0 1-1.11 1.692c-1.01.982-2.45.854-3.396-.125-.71-.752-.833-1.776-.989-2.734a18.313 18.313 0 0 1-.146-1.682.605.605 0 0 1 .15-.417.594.594 0 0 1 1.035.31l.008-.005Z"/><path fill="#211E1D" d="M25.99 15.226a18.106 18.106 0 0 1-2.803 4.837c-.302.364-.631.705-.985 1.018a8.527 8.527 0 0 1-3.645 1.867c-.97.227-1.961.348-2.957.36-2.12-.045-4-1.055-5.656-2.272-.501-.376-.966-.799-1.39-1.262a7.601 7.601 0 0 1-1.062-1.604 19.856 19.856 0 0 1-1.566-4.032 5.851 5.851 0 0 1-.174-.965.717.717 0 0 1 .13-.474.705.705 0 0 1 .89-.221.71.71 0 0 1 .333.359c.06.14.099.241.176.41.384.832.834 1.65 1.29 2.449.507.84.971 1.752 1.666 2.442 1.334 1.195 3.534 2.332 5.335 2.32l.14-.01c.436-.037.88-.074 1.31-.14.12-.018.242-.037.358-.061.173-.027.355-.067.524-.104l.17-.042c.113-.027.223-.06.331-.094a6.701 6.701 0 0 0 2.618-1.496c.09-.083.18-.167.278-.248 1.262-1.202 2.412-2.497 3.718-3.696a.607.607 0 0 1 .964.27.622.622 0 0 1 .008.389ZM43.803 54c4.178 0 6.362-3.133 6.362-6.112 0-.735-.92-.967-1.456-.271-.422.696-1.035 1.431-2.53 1.431-.958 0-1.724-.773-1.724-2.089v-9.284h3.947a.871.871 0 0 0 .881-.89v-.851a.871.871 0 0 0-.88-.89h-3.948v-3.907c0-.619-.422-1.006-1.035-1.006h-.881c-.499 0-.92.387-1.035 1.006-.498 2.36-2.338 3.907-4.676 3.907H36.1c-.536 0-.881.348-.881.89v.851c0 .503.383.89.881.89h1.456v9.168c0 4.681 2.453 7.157 6.247 7.157ZM63.399 34.657c-1.571 0-2.913.387-3.91 1.161V25.45c0-1.122-.842-1.354-1.8-.89l-5.902 2.747c-.843.387-1.035.62-1.035 1.083v.155c0 1.083 1.878 1.393 1.878 3.211v17.602c0 1.818-1.533 2.282-1.533 3.365v.155c0 .464.345.735.881.735l5.787.039c.69 0 .997-.271.997-1.006v-.348C59.912 53.38 61.368 54 63.399 54c4.752 0 9.044-3.907 9.044-10.02 0-6.266-4.713-9.323-9.044-9.323Zm-.613 17.447c-1.687 0-3.296-2.282-3.296-4.642v-7.505c0-2.166.92-3.404 2.3-3.404 2.797 0 3.908 6.5 3.908 10.677 0 3.172-.958 4.874-2.912 4.874ZM94.62 49.358l-.499-6.964c-.421-5.841-3.947-7.737-7.281-7.737-1.955 0-3.564.658-4.676 1.819v-11.22c0-.889-.575-1.198-1.456-.811l-6.055 2.707c-.537.233-.882.62-.882 1.084v.116c0 1.083 1.878 1.276 1.878 3.095v17.95c0 1.779-1.686 2.205-1.686 3.326v.155c0 .464.345.735.882.735h8.316c.536 0 .92-.27.92-.735v-.155c0-1.121-1.725-1.547-1.725-3.326v-8.434c0-2.244.805-3.752 2.49-3.752 1.764 0 2.492 1.431 2.684 4.951l.383 7.196c.077 1.78-1.38 2.244-1.38 3.365v.155c0 .464.345.735.92.735h7.626c.575 0 .92-.27.92-.735v-.155c0-1.121-1.226-1.586-1.38-3.365Z"/></svg>